<?xml version="1.0" standalone="no"?>
<!DOCTYPE svg PUBLIC "-//W3C//DTD SVG 20010904//EN"
 "http://www.w3.org/TR/2001/REC-SVG-20010904/DTD/svg10.dtd">
<svg version="1.0" xmlns="http://www.w3.org/2000/svg"
 width="500.000000pt" height="500.000000pt" viewBox="0 0 500.000000 500.000000"
 preserveAspectRatio="xMidYMid meet">
<metadata>
Created by potrace 1.14, written by Peter Selinger 2001-2017
</metadata>
<g transform="translate(0.000000,500.000000) scale(0.100000,-0.100000)"
fill="#000000" stroke="none">
<path d="M987 3862 c-16 -3 -17 -71 -18 -930 0 -510 -2 -949 -4 -977 -16 -283
-61 -312 -510 -324 l-41 -1 0 -261 0 -262 250 7 c138 3 268 8 290 10 321 32
382 46 476 110 58 39 93 76 124 128 26 45 61 156 70 223 36 255 39 352 40
1348 l2 927 -20 1 c-77 2 -646 3 -659 1z"/>
<path d="M2240 3862 c-7 -3 -10 -472 -10 -1378 l0 -1375 618 2 c339 1 649 5
687 9 39 4 99 11 135 14 88 9 243 41 310 64 249 86 386 241 426 482 2 14 6 34
9 45 2 11 7 47 11 80 3 33 8 74 10 90 18 155 25 765 11 1015 -24 417 -66 569
-198 701 -74 75 -159 126 -269 163 -107 35 -197 52 -375 72 -123 13 -1330 27
-1365 16z m1235 -577 c150 -24 202 -62 234 -173 29 -99 36 -217 36 -617 0
-526 -12 -642 -73 -723 -29 -38 -87 -67 -152 -76 -25 -3 -63 -9 -85 -12 -22
-3 -145 -7 -272 -8 -204 -2 -233 0 -237 13 -2 9 -4 374 -4 813 l1 796 256 -3
c141 -2 274 -6 296 -10z"/>
</g>
</svg>
